<?xml version="1.0" encoding="UTF-8"?>
<svg id="Layer_2" data-name="Layer 2" xmlns="http://www.w3.org/2000/svg" viewBox="0 0 66.11 53.27">
  <defs>
    <style>
      .cls-1 {
        fill: #70c496;
      }
    </style>
  </defs>
  <g id="Layer_1-2" data-name="Layer 1">
    <g>
      <path class="cls-1" d="M29.62,52.76h-10.47c-.03-1.16-.24-2.87-1.28-4.47-2.69-4.15-7.87-2.85-12.38-7.28-2.23-2.18-3.27-4.99-3.57-5.77-.78-1.98-1.1-3.74-1.23-5C-.17,26.41-.05,23.78.13,22.29c.1-.8.27-1.66.89-1.96,1.08-.52,2.7,1.05,2.81,1.15.2,2.24.6,4.82,1.36,7.62.41,1.51.88,2.9,1.36,4.17-.41-2.99-.82-5.99-1.23-8.98.11-.14.34-.36.68-.43.56-.1,1.21.3,1.53,1.02.14.96.36,2.34.68,4,.53,2.77.79,4.15,1.23,5.11.51,1.1,1.79,3.16,5.43,4.72l2.87.38c-.37-.26-6.23-4.42-6.51-6.77-.04-.33-.12-1.02.3-1.57.46-.6,1.23-.7,1.49-.72.67.59,1.82,1.56,3.36,2.6,3.81,2.57,5.94,2.84,8.51,5.32,1.43,1.38,2.23,2.71,2.6,3.32,2.59,4.36,2.43,9.03,2.13,11.49Z"/>
      <path class="cls-1" d="M36.49,53.27h10.47c.03-1.16.24-2.87,1.28-4.47,2.69-4.15,7.87-2.85,12.38-7.28,2.23-2.18,3.27-4.99,3.57-5.77.78-1.98,1.1-3.74,1.23-5,.86-3.84.74-6.46.55-7.96-.1-.8-.27-1.66-.89-1.96-1.08-.52-2.7,1.05-2.81,1.15-.2,2.24-.6,4.82-1.36,7.62-.41,1.51-.88,2.9-1.36,4.17.41-2.99.82-5.99,1.23-8.98-.11-.14-.34-.36-.68-.43-.56-.1-1.21.3-1.53,1.02-.14.96-.36,2.34-.68,4-.53,2.77-.79,4.15-1.23,5.11-.51,1.1-1.79,3.16-5.43,4.72l-2.87.38c.37-.26,6.23-4.42,6.51-6.77.04-.33.12-1.02-.3-1.57-.46-.6-1.23-.7-1.49-.72-.67.59-1.82,1.56-3.36,2.6-3.81,2.57-5.94,2.84-8.51,5.32-1.43,1.38-2.23,2.71-2.6,3.32-2.59,4.36-2.43,9.03-2.13,11.49Z"/>
      <path class="cls-1" d="M33.37,31.27s-.04.03-.06.04v-.09s.04.03.06.05Z"/>
      <path class="cls-1" d="M51.06,13.27c-.42,2.26-2.6,4.59-4.47,6.67-3.61,3.89-9.71,8.96-12.8,11.1-.18.12-.4.26-.62.13-4.74-3.44-16.57-12.73-17.55-18.24-1.07-7.03,4.72-15.66,12.76-12.1,1.79.71,3.41,2.13,4.71,3.55.07.02.21.07.27.1.66-.2,1.38-1.41,2.07-1.84,8.47-7,17.04,1.29,15.64,10.54v.09Z"/>
      <path class="cls-1" d="M33.43,31.22v.09s-.04-.03-.06-.04c.02-.02.04-.03.06-.05Z"/>
    </g>
  </g>
</svg>