<svg xmlns="http://www.w3.org/2000/svg" xmlns:xlink="http://www.w3.org/1999/xlink" width="286px" height="208px" viewBox="0 0 286.4823138508028 208.631769528494">
    
        <g id="dc888faf-3f56-4eed-b87c-c59cd2319ee9" name="New Group">
          <g id="f47395b0-7167-4f09-9d3a-1796d399b745">
<g style="">
		<g id="f47395b0-7167-4f09-9d3a-1796d399b745-child-0">
<path style="stroke: rgb(193,193,193); stroke-opacity: 1.00; stroke-width: 0; stroke-dasharray: none; stroke-linecap: butt; stroke-dashoffset: 0; stroke-linejoin: miter; stroke-miterlimit: 4; fill: rgb(174,171,172); fill-opacity: 1.00; fill-rule: nonzero; opacity: 1;" transform="matrix(0.774335 0 0 0.77404 143.959014 104.315915) matrix(1 0 0 1 73.613419 0.801418)  translate(-284.612783, -181.0333)" d="M 273.41 184.41 L 272.69 300.00 L 216.69 300.00 L 217.48 196.75 C 217.91 139.96 218.55 87.43 218.89 80.00 C 219.22 72.57 219.13 63.21 218.68 59.18 C 218.01 53.18 218.15 51.42 219.45 49.43 C 221.33 46.57 224.87 46.26 227.16 48.75 C 230.07 51.91 233.43 54.05 234.73 53.55 C 235.43 53.28 236.00 53.40 236.00 53.82 C 236.00 54.23 236.79 54.62 237.75 54.69 C 246.96 55.32 270.59 63.50 272.80 66.83 C 273.90 68.48 274.00 89.04 273.41 184.41 Z M 392.37 312.93 C 389.75 314.98 389.11 315.00 313.17 315.00 C 237.69 315.00 229.36 314.63 244.55 311.96 C 247.82 311.38 251.62 310.52 253.00 310.03 C 257.62 308.39 270.40 308.10 273.05 309.57 C 276.87 311.69 283.87 311.27 289.63 308.59 C 292.45 307.28 295.04 305.74 295.39 305.18 C 295.74 304.62 297.43 303.85 299.14 303.47 C 301.44 302.96 301.90 302.55 300.88 301.91 C 299.92 301.29 300.56 300.96 303.00 300.80 C 304.92 300.68 299.30 300.33 290.50 300.04 L 274.50 299.50 L 274.28 231.71 C 274.08 169.71 274.20 163.86 275.70 163.29 C 276.60 162.94 285.70 163.48 295.92 164.47 C 306.14 165.47 320.72 166.79 328.33 167.40 C 340.10 168.34 342.38 168.79 343.58 170.44 C 344.77 172.07 345.00 182.79 345.00 236.74 L 345.00 301.09 L 367.85 300.40 C 390.36 299.71 390.73 299.73 392.85 301.85 C 395.98 304.98 395.75 310.27 392.37 312.93 Z M 297.55 219.75 C 297.83 220.66 301.22 221.00 309.97 221.00 L 322.00 221.00 L 322.00 193.00 L 297.28 193.00 L 296.71 199.25 C 296.17 205.04 296.66 216.86 297.55 219.75 Z M 297.00 240.00 L 297.00 268.00 L 322.00 268.00 L 322.00 240.00 Z M 188.86 231.29 C 187.56 232.11 184.34 233.00 181.70 233.27 C 175.15 233.95 173.57 232.31 174.35 225.71 C 175.12 219.16 176.27 218.00 181.97 218.00 C 187.64 218.00 189.62 219.77 190.56 225.68 C 191.14 229.31 190.94 229.99 188.86 231.29 Z M 187.00 185.58 C 187.00 188.17 185.68 188.44 179.50 187.13 C 176.62 186.51 176.49 186.25 176.19 180.53 C 175.74 171.71 178.63 167.80 183.04 171.28 C 184.61 172.52 187.00 181.16 187.00 185.58 Z" stroke-linecap="round"></path>
</g>
		<g id="f47395b0-7167-4f09-9d3a-1796d399b745-child-1">
<path style="stroke: rgb(193,193,193); stroke-opacity: 1.00; stroke-width: 0; stroke-dasharray: none; stroke-linecap: butt; stroke-dashoffset: 0; stroke-linejoin: miter; stroke-miterlimit: 4; fill: rgb(196,193,194); fill-opacity: 1.00; fill-rule: nonzero; opacity: 1;" transform="matrix(0.774335 0 0 0.77404 143.959014 104.315915) matrix(1 0 0 1 32.565838 0.268118)  translate(-243.565203, -180.5)" d="M 273.41 184.41 C 273.93 100.32 273.91 74.39 273.15 68.30 C 273.92 71.96 274.00 81.99 274.00 115.61 L 274.00 163.00 L 278.25 163.00 C 280.59 163.00 289.25 163.71 297.50 164.57 C 301.68 165.01 307.19 165.54 312.66 166.04 C 306.92 165.52 300.90 164.96 295.92 164.47 C 285.70 163.48 276.60 162.94 275.70 163.29 C 274.20 163.86 274.08 169.71 274.28 231.71 L 274.50 299.50 L 290.50 300.04 C 299.30 300.33 304.92 300.68 303.00 300.80 C 300.56 300.96 299.92 301.29 300.88 301.91 C 301.90 302.55 301.44 302.96 299.14 303.47 C 297.43 303.85 295.74 304.62 295.39 305.18 C 295.04 305.74 292.45 307.28 289.63 308.59 C 283.87 311.27 276.87 311.69 273.05 309.57 C 270.40 308.10 257.62 308.39 253.00 310.03 C 251.62 310.52 247.82 311.38 244.55 311.96 C 232.46 314.09 235.27 314.75 275.01 314.94 L 244.62 314.92 C 164.80 314.88 98.83 314.58 98.02 314.26 C 97.20 313.94 95.98 313.12 95.29 312.44 C 93.75 310.90 95.61 310.00 100.33 310.00 C 103.74 310.00 115.31 307.73 121.00 305.94 C 122.93 305.34 130.35 304.19 137.50 303.39 C 144.65 302.59 152.52 301.63 155.00 301.26 L 159.50 300.59 L 151.50 299.50 L 151.26 251.00 C 151.13 224.32 151.36 186.75 151.76 167.50 L 152.50 132.50 L 161.50 132.87 C 170.07 133.21 174.23 134.20 173.77 135.78 C 173.65 136.18 174.36 137.70 175.33 139.16 C 176.90 141.50 177.04 143.46 176.54 155.56 L 175.98 169.31 L 190.06 168.67 C 197.80 168.32 204.56 167.77 205.07 167.46 C 206.28 166.71 206.29 133.30 205.09 132.55 C 204.58 132.24 201.43 131.70 198.09 131.35 C 191.97 130.71 191.39 130.22 191.95 126.15 C 192.05 125.41 191.65 125.10 191.07 125.46 C 190.44 125.85 190.00 125.25 190.00 124.00 C 190.00 122.84 190.41 122.14 190.91 122.45 C 191.42 122.76 191.98 122.67 192.16 122.26 C 192.74 120.96 198.30 117.40 203.00 115.32 C 208.04 113.09 211.17 108.77 209.18 106.78 C 208.41 106.01 208.00 101.53 208.00 93.77 L 208.00 81.95 L 210.89 83.44 C 213.64 84.86 213.81 84.83 214.38 82.72 C 214.70 81.50 214.98 74.07 214.99 66.20 C 215.00 50.37 216.15 46.00 220.28 46.00 C 222.42 46.00 242.26 53.14 250.50 56.88 C 251.65 57.40 253.66 58.21 255.94 59.08 C 249.15 56.83 241.95 54.98 237.75 54.69 C 236.79 54.62 236.00 54.23 236.00 53.82 C 236.00 53.40 235.43 53.28 234.73 53.55 C 233.43 54.05 230.07 51.91 227.16 48.75 C 224.87 46.26 221.33 46.57 219.45 49.43 C 218.15 51.42 218.01 53.18 218.68 59.18 C 219.13 63.21 219.22 72.57 218.89 80.00 C 218.55 87.43 217.91 139.96 217.48 196.75 L 216.69 300.00 L 272.69 300.00 Z M 187.00 185.58 C 187.00 181.16 184.61 172.52 183.04 171.28 C 178.63 167.80 175.74 171.71 176.19 180.53 C 176.49 186.25 176.62 186.51 179.50 187.13 C 181.20 187.49 182.52 187.73 183.56 187.83 L 177.00 188.30 L 177.00 218.06 L 190.51 217.78 L 204.02 217.50 L 205.15 187.00 L 200.23 187.00 C 197.52 187.00 191.19 187.29 186.15 187.65 L 186.07 187.66 C 186.77 187.33 187.00 186.65 187.00 185.58 Z M 188.86 231.29 C 190.94 229.99 191.14 229.31 190.56 225.68 C 189.62 219.77 187.64 218.00 181.97 218.00 C 176.27 218.00 175.12 219.16 174.35 225.71 C 173.57 232.31 175.15 233.95 181.70 233.27 C 184.34 233.00 187.56 232.11 188.86 231.29 Z M 184.30 130.84 C 183.11 131.48 181.25 132.00 180.17 132.00 C 178.06 132.00 176.49 129.43 178.02 128.49 C 178.53 128.17 179.70 126.32 180.63 124.37 C 182.61 120.19 184.30 119.32 187.31 120.90 L 189.50 122.05 L 187.25 121.62 C 185.74 121.33 185.00 121.67 185.00 122.65 C 185.00 123.46 185.40 123.87 185.89 123.57 C 186.38 123.27 186.71 123.80 186.64 124.76 C 186.56 125.72 187.06 126.39 187.75 126.25 C 190.46 125.71 188.15 128.78 184.30 130.84 Z M 174.00 300.00 C 172.98 300.66 175.71 300.93 182.50 300.86 C 190.81 300.77 191.74 300.61 188.00 299.95 C 181.72 298.83 175.77 298.85 174.00 300.00 Z M 392.37 312.93 L 389.73 315.00 L 351.65 314.98 C 389.46 314.90 390.30 314.55 392.37 312.93 Z M 272.19 66.19 C 270.89 65.10 268.05 63.68 264.47 62.22 C 268.06 63.61 271.28 65.25 272.19 66.19 Z" stroke-linecap="round"></path>
</g>
		<g id="f47395b0-7167-4f09-9d3a-1796d399b745-child-2">
<path style="stroke: rgb(193,193,193); stroke-opacity: 1.00; stroke-width: 0; stroke-dasharray: none; stroke-linecap: butt; stroke-dashoffset: 0; stroke-linejoin: miter; stroke-miterlimit: 4; fill: rgb(213,211,211); fill-opacity: 1.00; fill-rule: nonzero; opacity: 1;" transform="matrix(0.774335 0 0 0.77404 143.959014 104.315915) matrix(1 0 0 1 -2.664253 0)  translate(-208.335112, -180.231882)" d="M 234.74 50.64 C 227.83 48.11 221.44 46.00 220.28 46.00 C 216.15 46.00 215.00 50.37 214.99 66.20 C 214.98 74.07 214.70 81.50 214.38 82.72 C 213.81 84.83 213.64 84.86 210.89 83.44 L 208.00 81.95 L 208.00 93.77 C 208.00 101.53 208.41 106.01 209.18 106.78 C 211.17 108.77 208.04 113.09 203.00 115.32 C 198.30 117.40 192.74 120.96 192.16 122.26 C 191.98 122.67 191.42 122.76 190.91 122.45 C 190.41 122.14 190.00 122.84 190.00 124.00 C 190.00 125.25 190.44 125.85 191.07 125.46 C 191.65 125.10 192.05 125.41 191.95 126.15 C 191.39 130.22 191.97 130.71 198.09 131.35 C 201.43 131.70 204.58 132.24 205.09 132.55 C 206.29 133.30 206.28 166.71 205.07 167.46 C 204.66 167.71 200.18 168.12 194.40 168.45 C 196.03 168.29 197.52 168.10 198.67 167.90 L 205.00 166.79 L 205.00 132.75 L 202.05 133.34 C 200.43 133.66 194.16 134.46 188.11 135.12 C 175.26 136.51 174.33 136.88 175.95 139.90 C 176.14 140.26 176.30 140.83 176.42 141.62 C 176.19 140.61 175.83 139.90 175.33 139.16 C 174.36 137.70 173.65 136.18 173.77 135.78 C 174.23 134.20 170.07 133.21 161.50 132.87 L 152.50 132.50 L 151.76 167.50 C 151.36 186.75 151.13 224.32 151.26 251.00 L 151.50 299.50 L 159.50 300.59 L 155.00 301.26 C 152.52 301.63 144.65 302.59 137.50 303.39 C 130.35 304.19 122.93 305.34 121.00 305.94 C 115.31 307.73 103.74 310.00 100.33 310.00 C 95.61 310.00 93.75 310.90 95.29 312.44 C 95.98 313.12 97.20 313.94 98.02 314.26 C 98.83 314.58 164.80 314.88 244.62 314.92 L 275.01 314.94 C 285.18 314.98 297.78 315.00 313.17 315.00 C 329.05 315.00 341.64 315.00 351.65 314.98 L 351.65 314.98 L 389.73 315.00 L 32.27 315.00 L 29.63 312.93 C 26.23 310.25 26.02 305.00 29.19 302.04 C 31.26 300.11 32.61 300.00 54.19 300.00 L 77.00 300.00 L 77.00 221.00 C 77.00 145.58 77.08 141.92 78.84 140.16 C 80.29 138.71 82.93 138.17 91.09 137.64 C 96.82 137.27 112.75 135.85 126.50 134.49 C 140.25 133.12 151.61 132.01 151.75 132.00 C 151.89 132.00 152.00 117.21 152.00 99.12 C 152.00 73.21 152.28 66.01 153.31 65.16 C 155.08 63.68 207.41 47.47 216.55 45.57 C 218.84 45.09 222.93 46.18 233.05 50.00 C 233.61 50.21 234.18 50.42 234.74 50.64 Z M 90.75 186.43 C 91.46 187.15 111.97 186.50 131.50 185.13 L 140.50 184.50 L 140.77 168.23 C 141.02 153.62 140.87 151.89 139.33 151.30 C 137.47 150.58 92.45 153.60 90.93 154.54 C 89.83 155.22 89.66 185.32 90.75 186.43 Z M 90.71 234.35 C 91.27 237.20 91.29 237.20 97.39 236.62 C 100.75 236.30 111.65 235.75 121.62 235.39 L 139.74 234.73 L 140.36 228.12 C 141.23 218.89 141.16 202.21 140.24 201.65 C 139.66 201.29 91.89 203.52 91.40 203.92 C 90.92 204.32 90.29 232.18 90.71 234.35 Z M 90.63 281.75 L 91.23 284.00 L 139.79 284.00 L 140.21 268.25 C 140.45 259.59 140.38 252.19 140.07 251.81 C 139.06 250.58 91.63 252.99 90.79 254.31 C 89.89 255.72 89.76 278.50 90.63 281.75 Z M 165.00 84.14 L 165.00 119.28 L 170.45 118.64 C 176.64 117.91 202.78 113.22 204.90 112.45 C 206.06 112.03 206.20 108.91 205.73 94.39 C 205.42 84.73 205.00 76.67 204.80 76.47 C 204.60 76.26 197.92 77.43 189.97 79.05 C 182.01 80.68 173.14 82.49 170.25 83.07 Z M 297.55 219.75 C 296.66 216.86 296.17 205.04 296.71 199.25 L 297.28 193.00 L 322.00 193.00 L 322.00 221.00 L 309.97 221.00 C 301.22 221.00 297.83 220.66 297.55 219.75 Z M 297.00 240.00 L 322.00 240.00 L 322.00 268.00 L 297.00 268.00 Z M 184.30 130.84 C 188.15 128.78 190.46 125.71 187.75 126.25 C 187.06 126.39 186.56 125.72 186.64 124.76 C 186.71 123.80 186.38 123.27 185.89 123.57 C 185.40 123.87 185.00 123.46 185.00 122.65 C 185.00 121.67 185.74 121.33 187.25 121.62 L 189.50 122.05 L 187.31 120.90 C 184.30 119.32 182.61 120.19 180.63 124.37 C 179.70 126.32 178.53 128.17 178.02 128.49 C 176.49 129.43 178.06 132.00 180.17 132.00 C 181.25 132.00 183.11 131.48 184.30 130.84 Z M 174.00 300.00 C 175.77 298.85 181.72 298.83 188.00 299.95 C 191.74 300.61 190.81 300.77 182.50 300.86 C 175.71 300.93 172.98 300.66 174.00 300.00 Z M 182.84 169.00 L 175.98 169.31 L 175.99 169.00 Z M 255.96 59.09 L 255.94 59.08 C 253.66 58.21 251.65 57.40 250.50 56.88 C 250.38 56.82 250.25 56.77 250.12 56.71 C 250.26 56.77 250.39 56.83 250.50 56.88 C 251.65 57.40 253.66 58.21 255.96 59.09 Z" stroke-linecap="round"></path>
</g>
</g>
</g>

<g id="9f0c9cb9-d3e3-44ba-b06f-d5023e00ce87">
<g style="">
		<g id="9f0c9cb9-d3e3-44ba-b06f-d5023e00ce87-child-0">
<path style="stroke: none; stroke-width: 0; stroke-dasharray: none; stroke-linecap: butt; stroke-dashoffset: 0; stroke-linejoin: miter; stroke-miterlimit: 4; fill: rgb(196,193,194); fill-opacity: 1.00; fill-rule: nonzero; opacity: 1;" d="M112.69408,110.36842l-1.0806,-13.43869l31.75416,-2.55291l1.0806,13.43869z" stroke-linecap="round"></path>
</g>
</g>
</g>

<g id="ab79e437-73de-460a-ba8b-370e03a35396">
<g style="">
		<g id="ab79e437-73de-460a-ba8b-370e03a35396-child-0">
<path style="stroke: none; stroke-width: 0; stroke-dasharray: none; stroke-linecap: butt; stroke-dashoffset: 0; stroke-linejoin: miter; stroke-miterlimit: 4; fill: rgb(196,193,194); fill-opacity: 1.00; fill-rule: nonzero; opacity: 1;" d="M98.45054,71.20297l-0.00008,-12.6872l45.50874,-6.67424l-2.99292,14.95094z" stroke-linecap="round"></path>
</g>
</g>
</g>

<g id="92095876-c90a-4536-a547-4937e6ddfd47">
<g style="">
		<g id="92095876-c90a-4536-a547-4937e6ddfd47-child-0">
<path style="stroke: none; stroke-width: 0; stroke-dasharray: none; stroke-linecap: butt; stroke-dashoffset: 0; stroke-linejoin: miter; stroke-miterlimit: 4; fill: rgb(174,171,172); fill-opacity: 1.00; fill-rule: nonzero; opacity: 1;" d="M98.45053,197.95329v-130.59462h18.8074v130.59462z" stroke-linecap="round"></path>
</g>
</g>
</g>

<g id="c3aeee22-4876-4f8c-b066-6a13598b4ef6">
<g style="">
		<g id="c3aeee22-4876-4f8c-b066-6a13598b4ef6-child-0">
<path style="stroke: none; stroke-width: 0; stroke-dasharray: none; stroke-linecap: butt; stroke-dashoffset: 0; stroke-linejoin: miter; stroke-miterlimit: 4; fill: rgb(174,171,172); fill-opacity: 1.00; fill-rule: nonzero; opacity: 1;" d="M5.27,208.63198c-2.91054,0 -5.27,-2.35946 -5.27,-5.27v-1.99552c0,-2.91054 2.35946,-5.27 5.27,-5.27h273.65279c2.91054,0 5.27,2.35946 5.27,5.27v1.99552c0,2.91054 -2.35946,5.27 -5.27,5.27z" stroke-linecap="round"></path>
</g>
</g>
</g>

<g id="565a0b75-5c33-4372-b7ee-49a09af1bd15">
<g style="">
		<g id="565a0b75-5c33-4372-b7ee-49a09af1bd15-child-0">
<path style="stroke: none; stroke-width: 0; stroke-dasharray: none; stroke-linecap: butt; stroke-dashoffset: 0; stroke-linejoin: miter; stroke-miterlimit: 4; fill: rgb(196,193,194); fill-opacity: 1.00; fill-rule: nonzero; opacity: 1;" d="M139.65528,79.64797v-77.27106h10.17131v77.27106z" stroke-linecap="round"></path>
</g>
</g>
</g>

        </g>
      
  </svg>