<svg width="145" height="101" viewBox="0 0 145 101" fill="none" xmlns="http://www.w3.org/2000/svg">
<path d="M17.5 77.5C18.523 76.477 19.8609 75.8658 20.6464 75.6045C20.8792 75.5271 21.124 75.5 21.3693 75.5H23.3377C24.629 75.5 25.77 76.3284 26.2127 77.5414C26.4999 78.3283 26.7971 79.0942 27 79.5C27.5 80.5 26.5 91 26 94.5C25.5 98 21 99 20.5 100C20.1 100.8 18 100.333 17 100L13.0547 98.3092C11.4206 97.6088 10.7506 95.649 11.614 94.0948L12.5 92.5L15.2705 86.4972C15.4223 86.1685 15.5119 85.8162 15.5435 85.4555C15.7611 82.9687 16.3867 78.6133 17.5 77.5Z" fill="#424242"/>
<path d="M21.0001 78.5C20.6001 76.9 22.1668 56.3333 23.0001 46.5L26.5001 48L25.5001 79.5C24.1668 79.8333 21.4001 80.1 21.0001 78.5Z" fill="#424242"/>
<rect width="77" height="77" transform="matrix(0.918927 0.394427 -0.907999 0.418973 73.916 0.5)" fill="#424242"/>
<rect width="44.6955" height="22.1719" transform="matrix(0.939355 0.342945 -0.00098461 1 32.0955 58.9805)" fill="#969696"/>
<rect width="44.6955" height="22.1719" transform="matrix(-0.908208 0.418519 -0.00451862 0.99999 114.693 55.5)" fill="#404040"/>
<path d="M72.7123 0.539423L0 31L28.2001 42.4712C29.0239 42.8063 29.9538 42.7587 30.739 42.3412L87.4314 12.1952C89.5707 11.0576 89.5487 7.98447 87.3934 6.87768L75.2419 0.637737C74.4545 0.233398 73.5287 0.197416 72.7123 0.539423Z" fill="url(#paint0_linear_9_50)"/>
<defs>
<linearGradient id="paint0_linear_9_50" x1="41.5" y1="-4.00001" x2="58" y2="23.5" gradientUnits="userSpaceOnUse">
<stop/>
<stop offset="1" stop-color="#424242"/>
<stop offset="1" stop-color="#464646"/>
</linearGradient>
</defs>
</svg>
